<svg height="512pt" viewBox="0 0 512 512" width="512pt" xmlns="http://www.w3.org/2000/svg" xmlns:xlink="http://www.w3.org/1999/xlink"><linearGradient id="a" gradientUnits="userSpaceOnUse" x1="0" x2="512" y1="256" y2="256"><stop offset="0" stop-color="#00f38d"/><stop offset="1" stop-color="#009eff"/></linearGradient><path d="m512 256c0 141.386719-114.613281 256-256 256s-256-114.613281-256-256 114.613281-256 256-256 256 114.613281 256 256zm0 0" fill="url(#a)"/><g fill="#fff"><path d="m366.09375 208.554688c-6.199219 0-12.042969 1.566406-17.191406 4.316406-6.902344-7.546875-16.832032-12.292969-27.855469-12.292969-7.609375 0-14.699219 2.273437-20.632813 6.15625-6.628906-5.734375-15.289062-9.222656-24.761718-9.222656-2.636719 0-5.210938.269531-7.695313.78125v-67.367188c0-20.785156-16.910156-37.695312-37.695312-37.695312-20.789063 0-37.699219 16.910156-37.699219 37.695312v152.414063c0 4.75-3.03125 11.921875-7.675781 12.847656l-45.074219-17.203125-.496094-.179687c-13.109375-4.484376-24.480468-4.421876-33.804687.183593-5.742188 2.835938-13.480469 8.894531-17.75 21.628907-9.015625 26.882812 8.078125 40.636718 21.886719 48.652343l79.96875 50.339844c12.082031 8.613281 26.25 13.160156 41.019531 13.160156h102.988281c19.167969 0 37.105469-7.5 50.507812-21.121093 13.300782-13.511719 20.621094-31.507813 20.621094-50.664063v-94.953125c0-21.714844-16.261718-37.476562-38.660156-37.476562zm8.660156 132.429687c0 23.429687-18.066406 41.785156-41.128906 41.785156h-102.992188c-8.578124 0-16.824218-2.683593-23.84375-7.765625l-.394531-.285156-81.003906-50.984375-.488281-.296875c-7.539063-4.351562-9.183594-6.960938-9.507813-7.65625-.546875-1.171875.269531-4.03125.808594-5.628906.75-2.238282 1.722656-3.835938 2.597656-4.265625 1.304688-.644531 4.847657-.699219 10.578125 1.222656l45.425782 17.339844.15625.058593c3.539062 1.304688 6.890624 1.878907 10.25 1.753907 23.070312-.882813 37.351562-22.96875 37.351562-42.921875v-152.414063c0-4.171875 3.523438-7.695312 7.695312-7.695312 4.171876 0 7.699219 3.523437 7.699219 7.695312v126.980469h30v-23.308594c0-4.039062 3.308594-7.085937 7.695313-7.085937 4.316406 0 7.699218 3.230469 7.699218 7.347656v23.046875h30v-19.71875c0-4.265625 3.378907-7.605469 7.695313-7.605469s7.695313 3.339844 7.695313 7.605469v19.71875h30v-11.039062c0-3.933594 3.019531-8.3125 7.347656-8.3125 8.664062 0 8.664062 5.628906 8.664062 7.476562zm0 0"/><path d="m310.007812 126.96875h92.015626v30h-92.015626zm0 0"/></g></svg>