<svg viewBox="0 0 512 512" xmlns="http://www.w3.org/2000/svg"><path d="m512 256c0 141.386719-114.613281 256-256 256s-256-114.613281-256-256 114.613281-256 256-256 256 114.613281 256 256zm0 0" fill="#414952"/><path d="m98 335 176.339844 176.339844c132.824218-9.402344 237.660156-120.121094 237.660156-255.339844 0-15.046875-1.308594-29.785156-3.800781-44.121094l-94.199219-94.199218zm0 0" fill="#333940"/><path d="m98 117.679688v217.320312h94.53125l63.46875 68.910156 63.46875-68.910156h94.53125v-217.320312zm0 0" fill="#f50"/><path d="m256 403.910156 63.46875-68.910156h94.53125v-217.320312h-158.394531zm0 0" fill="#e82e10"/><path d="m271.652344 229.894531c20.566406-5.5625 35.699218-24.34375 35.699218-46.667969 0-26.707031-21.648437-48.355468-48.351562-48.355468s-48.351562 21.648437-48.351562 48.355468c0 22.324219 15.132812 41.105469 35.699218 46.667969-36.503906 6.039063-64.347656 37.734375-64.347656 75.949219h154c0-38.214844-27.84375-69.910156-64.347656-75.949219zm0 0" fill="#fff"/><path d="m271.652344 229.894531c20.566406-5.5625 35.699218-24.34375 35.699218-46.667969 0-26.707031-21.648437-48.355468-48.351562-48.355468-1.140625 0-2.269531.054687-3.394531.132812v170.839844h80.394531c0-38.214844-27.84375-69.910156-64.347656-75.949219zm0 0" fill="#dce1eb"/></svg>