<?xml version="1.0" encoding="iso-8859-1"?>
<!-- Generator: Adobe Illustrator 21.0.0, SVG Export Plug-In . SVG Version: 6.00 Build 0)  -->
<svg xmlns="http://www.w3.org/2000/svg" xmlns:xlink="http://www.w3.org/1999/xlink" version="1.1" id="Capa_1" x="0px" y="0px" viewBox="0 0 512.09 512.09" style="enable-background:new 0 0 512.09 512.09;" xml:space="preserve" width="512" height="512">
<g>
	<path style="fill:#525256;" d="M403.547,0.002H207.545c-20.678,0-37.5,16.822-37.5,37.5V474.59c0,20.678,16.822,37.5,37.5,37.5   h196.002c20.678,0,37.5-16.822,37.5-37.5V37.502C441.047,16.824,424.225,0.002,403.547,0.002z"/>
	<path style="fill:#464649;" d="M403.547,0.002h-36c20.678,0,37.5,16.822,37.5,37.5V474.59c0,20.678-16.822,37.5-37.5,37.5h36   c20.678,0,37.5-16.822,37.5-37.5V37.502C441.047,16.824,424.225,0.002,403.547,0.002z"/>
	<path style="fill:#FFA035;" d="M395.037,484.557H216.055c-9.632,0-17.44-7.808-17.44-17.44V44.975c0-9.632,7.808-17.44,17.44-17.44   h178.982c9.632,0,17.44,7.808,17.44,17.44v422.142C412.477,476.749,404.669,484.557,395.037,484.557z"/>
	<path style="fill:#F78819;" d="M395.037,27.535h-18c9.632,0,17.44,7.808,17.44,17.44v422.142c0,9.632-7.808,17.44-17.44,17.44h18   c9.632,0,17.44-7.808,17.44-17.44V44.975C412.477,35.343,404.669,27.535,395.037,27.535z"/>
	<path style="fill:#464649;" d="M373.364,3.178C371.958,1.186,369.672,0,367.234,0H243.858c-2.438,0-4.725,1.186-6.13,3.178   c-1.405,1.993-1.753,4.544-0.934,6.841c6.446,18.073,23.669,30.216,42.856,30.216h51.792c19.188,0,36.411-12.143,42.856-30.216   C375.117,7.723,374.768,5.171,373.364,3.178z"/>
	<path style="fill:#FFFFFF;" d="M336.366,478.475h-61.639c-4.142,0-7.5-3.358-7.5-7.5c0-4.142,3.358-7.5,7.5-7.5h61.639   c4.142,0,7.5,3.358,7.5,7.5C343.866,475.117,340.508,478.475,336.366,478.475z"/>
	<path style="fill:#FFF5CF;" d="M322.377,323.496c29.856-23.722,46.853-56.791,46.853-91.571   c0-69.346-66.883-125.763-149.094-125.763c-82.21,0-149.094,56.417-149.094,125.763s66.883,125.763,149.094,125.763   c9.767,0,19.356-0.772,28.723-2.307c8.104,5.767,32.817,21.297,71.105,27.252c0.833,0.13,1.662,0.193,2.484,0.193   c4.915,0,9.54-2.28,12.709-6.366c3.957-5.102,4.822-11.981,2.256-17.954L322.377,323.496z"/>
	<g>
		<path style="fill:#FFECA1;" d="M322.377,323.496c29.856-23.722,46.853-56.791,46.853-91.571    c0-69.346-66.883-125.763-149.094-125.763c-6.012,0-11.94,0.31-17.768,0.897c73.864,7.433,131.325,60.592,131.325,124.866    c0,34.78-16.998,67.849-46.854,91.571l15.038,35.01c2.565,5.973,1.701,12.852-2.256,17.954c-0.414,0.534-0.856,1.033-1.317,1.504    c6.644,1.843,13.866,3.456,21.66,4.669c0.833,0.13,1.662,0.193,2.484,0.193c4.915,0,9.54-2.28,12.709-6.366    c3.957-5.102,4.822-11.981,2.256-17.954L322.377,323.496z"/>
	</g>
	<path style="fill:#FF3D43;" d="M285.454,210.949c-3.412-24.944-21.032-35.211-36.383-36.502   c-12.933-1.087-25.077,3.484-32.806,11.575c-7.729-8.091-19.874-12.662-32.807-11.575c-15.352,1.291-32.971,11.557-36.383,36.502   c-6.902,50.458,62.934,85.029,65.91,86.477c1.035,0.503,2.157,0.755,3.279,0.755c1.122,0,2.244-0.251,3.279-0.755   C222.52,295.978,292.357,261.407,285.454,210.949z"/>
	<g>
		<path style="fill:#D72E2E;" d="M285.454,210.949c-3.412-24.944-21.032-35.211-36.383-36.502    c-7.552-0.635-14.827,0.671-21.119,3.47c10.906,4.929,20.561,15.248,22.994,33.032c5.058,36.972-31.083,65.413-51.935,78.545    c7.606,4.79,13.179,7.545,13.975,7.932c1.035,0.503,2.157,0.755,3.279,0.755c1.122,0,2.244-0.251,3.279-0.755    C222.52,295.978,292.357,261.407,285.454,210.949z"/>
	</g>
</g>















</svg>
